<?xml version="1.0" standalone="no"?><!DOCTYPE svg PUBLIC "-//W3C//DTD SVG 1.1//EN" "http://www.w3.org/Graphics/SVG/1.1/DTD/svg11.dtd"><svg t="1743407850862" class="icon" viewBox="0 0 1024 1024" version="1.1" xmlns="http://www.w3.org/2000/svg" p-id="11919" xmlns:xlink="http://www.w3.org/1999/xlink" width="200" height="200"><path d="M480.01152 703.99232c88.367665 0 160.00384-71.636175 160.00384-160.00384l0-383.984641c0-88.367665-71.636175-160.00384-160.00384-160.00384s-160.00384 71.636175-160.00384 160.00384l0 383.984641c0 88.367665 71.636175 160.00384 160.00384 160.00384zM703.99232 448.00256l0 96.0064c0 123.714731-100.286549 224.00128-224.00128 224.00128s-224.00128-100.286549-224.00128-224.00128l0-96.0064-63.99744 0 0 96.0064c0 148.228311 112.00064 270.284229 255.98976 286.217031l0 129.776569-127.99488 0 0 63.99744 319.987201 0 0-63.99744-127.99488 0 0-129.776569c143.98912-15.912324 255.98976-137.968241 255.98976-286.217031l0-96.0064-63.99744 0z" fill="#8a8a8a" p-id="11920"></path></svg>